<?xml version="1.0" encoding="UTF-8" standalone="no"?>
<svg
   xmlns:dc="http://purl.org/dc/elements/1.1/"
   xmlns:cc="http://creativecommons.org/ns#"
   xmlns:rdf="http://www.w3.org/1999/02/22-rdf-syntax-ns#"
   xmlns:svg="http://www.w3.org/2000/svg"
   xmlns="http://www.w3.org/2000/svg"
   xmlns:xlink="http://www.w3.org/1999/xlink"
   xmlns:sodipodi="http://sodipodi.sourceforge.net/DTD/sodipodi-0.dtd"
   xmlns:inkscape="http://www.inkscape.org/namespaces/inkscape"
   viewBox="0 0 270 193.60295"
   version="1.1"
   id="svg2112"
   sodipodi:docname="cat-on-beach2.svg"
   inkscape:version="0.92.4 (5da689c313, 2019-01-14)">
  <metadata
     id="metadata2116">
    <rdf:RDF>
      <cc:Work
         rdf:about="">
        <dc:format>image/svg+xml</dc:format>
        <dc:type
           rdf:resource="http://purl.org/dc/dcmitype/StillImage" />
        <dc:title></dc:title>
      </cc:Work>
    </rdf:RDF>
  </metadata>
  <sodipodi:namedview
     pagecolor="#ffffff"
     bordercolor="#666666"
     borderopacity="1"
     objecttolerance="10"
     gridtolerance="10"
     guidetolerance="10"
     inkscape:pageopacity="0"
     inkscape:pageshadow="2"
     inkscape:window-width="1366"
     inkscape:window-height="713"
     id="namedview2114"
     showgrid="false"
     inkscape:zoom="1.2189897"
     inkscape:cx="135"
     inkscape:cy="96.801476"
     inkscape:window-x="0"
     inkscape:window-y="31"
     inkscape:window-maximized="1"
     inkscape:current-layer="svg2112" />
  <defs
     id="defs1826">
    <filter
       id="aa">
      <feGaussianBlur
         stdDeviation=".3347"
         id="feGaussianBlur1724" />
    </filter>
    <filter
       id="ab">
      <feGaussianBlur
         stdDeviation=".3078"
         id="feGaussianBlur1727" />
    </filter>
    <filter
       id="y" />
    <filter
       id="z"
       x="-.0397"
       y="-.12279"
       width="1.0794"
       height="1.2456">
      <feGaussianBlur
         stdDeviation="1.8361"
         id="feGaussianBlur1731" />
    </filter>
    <linearGradient
       id="d">
      <stop
         offset="0"
         id="stop1734" />
      <stop
         stop-opacity="0"
         offset="1"
         id="stop1736" />
    </linearGradient>
    <linearGradient
       id="w"
       x1="289.57"
       x2="302.82"
       gradientTransform="matrix(0.24449921,0.04889489,-0.06846027,0.34228898,142.33936,-290.90806)"
       gradientUnits="userSpaceOnUse">
      <stop
         stop-color="#dcddde"
         offset="0"
         id="stop1739" />
      <stop
         stop-color="#6c6d6f"
         offset="1"
         id="stop1741" />
    </linearGradient>
    <linearGradient
       id="x"
       x1="882.38"
       x2="943.46"
       y1="979.58"
       y2="1098.7"
       gradientTransform="matrix(0.34870752,0.01604635,-0.01604635,0.34870752,-132.03208,-340.16848)"
       gradientUnits="userSpaceOnUse">
      <stop
         stop-color="#ff7f2a"
         offset="0"
         id="stop1744" />
      <stop
         stop-color="#ed6324"
         offset="1"
         id="stop1746" />
    </linearGradient>
    <linearGradient
       id="a">
      <stop
         stop-color="#333"
         offset="0"
         id="stop1749" />
      <stop
         stop-color="#808080"
         offset="1"
         id="stop1751" />
    </linearGradient>
    <linearGradient
       id="c">
      <stop
         stop-color="#999"
         offset="0"
         id="stop1754" />
      <stop
         stop-color="#f9f9f9"
         offset=".4835"
         id="stop1756" />
      <stop
         stop-color="#999"
         offset="1"
         id="stop1758" />
    </linearGradient>
    <linearGradient
       id="b">
      <stop
         stop-color="#999"
         offset="0"
         id="stop1761" />
      <stop
         stop-color="#ccc"
         offset="1"
         id="stop1763" />
    </linearGradient>
    <linearGradient
       id="r"
       x1="30.283"
       x2="64.017"
       y1="384.74"
       y2="386.37"
       gradientUnits="userSpaceOnUse">
      <stop
         stop-color="#578ec1"
         offset="0"
         id="stop1766" />
      <stop
         stop-color="#0d56a5"
         offset="1"
         id="stop1768" />
    </linearGradient>
    <linearGradient
       id="o"
       x1="76.418"
       x2="77.953"
       y1="403.9"
       y2="406.02"
       gradientUnits="userSpaceOnUse">
      <stop
         stop-color="#808080"
         offset="0"
         id="stop1771" />
      <stop
         stop-color="#ccc"
         offset=".4624"
         id="stop1773" />
      <stop
         stop-color="#808080"
         offset="1"
         id="stop1775" />
    </linearGradient>
    <linearGradient
       id="m"
       x1="35.946"
       x2="74.259"
       y1="398.4"
       y2="437.36"
       gradientUnits="userSpaceOnUse">
      <stop
         stop-color="#fff"
         offset="0"
         id="stop1778" />
      <stop
         stop-color="#fff"
         stop-opacity="0"
         offset="1"
         id="stop1780" />
    </linearGradient>
    <linearGradient
       id="v"
       x1="111.81"
       x2="58.028"
       y1="326.39"
       y2="355.39"
       gradientUnits="userSpaceOnUse"
       xlink:href="#d" />
    <linearGradient
       id="u"
       x1="77.316"
       x2="78.598"
       y1="414.43"
       y2="416.37"
       gradientUnits="userSpaceOnUse"
       xlink:href="#a" />
    <linearGradient
       id="t"
       x1="32.404"
       x2="36.045"
       y1="420.92"
       y2="421.45"
       gradientUnits="userSpaceOnUse"
       xlink:href="#c" />
    <linearGradient
       id="s"
       x1="36.285"
       x2="37.06"
       y1="420.83"
       y2="420.99"
       gradientUnits="userSpaceOnUse"
       xlink:href="#b" />
    <linearGradient
       id="q"
       x1="80.911"
       x2="85.099"
       gradientUnits="userSpaceOnUse"
       xlink:href="#a" />
    <linearGradient
       id="p"
       x1="68.943"
       x2="72.125"
       y1="423.84"
       y2="424.37"
       gradientUnits="userSpaceOnUse"
       xlink:href="#c" />
    <linearGradient
       id="n"
       x1="76.285"
       x2="89.233"
       y1="421.71"
       y2="412.25"
       gradientUnits="userSpaceOnUse"
       xlink:href="#b" />
    <radialGradient
       id="l"
       cx="-1735.2"
       cy="-2.2434"
       r="211.91"
       gradientTransform="matrix(0.62599,0.05073,-0.0174,0.21477,1199.3,417.99)"
       gradientUnits="userSpaceOnUse">
      <stop
         stop-color="#ffe8b1"
         offset="0"
         id="stop1790" />
      <stop
         stop-color="#f5d79c"
         offset="1"
         id="stop1792" />
    </radialGradient>
    <radialGradient
       id="k"
       cx="-1747.4"
       cy="11.51"
       r="157.49"
       gradientTransform="matrix(0.55205,0,0,0.09161,1070.8,325.75)"
       gradientUnits="userSpaceOnUse">
      <stop
         stop-color="#e8b168"
         offset="0"
         id="stop1795" />
      <stop
         stop-color="#f6c783"
         offset="1"
         id="stop1797" />
    </radialGradient>
    <radialGradient
       id="j"
       cx="109.06"
       cy="326.44"
       r="1.7812"
       gradientTransform="matrix(1.3404373,0.04543247,-0.02352468,0.69412795,-8.6168951,-84.051329)"
       gradientUnits="userSpaceOnUse">
      <stop
         stop-color="#483737"
         offset="0"
         id="stop1800" />
      <stop
         stop-color="#d79348"
         offset="1"
         id="stop1802" />
    </radialGradient>
    <radialGradient
       id="h"
       cx="70.583"
       cy="418.7"
       r="13.024"
       gradientTransform="matrix(1.2256,-0.25519,0.1657,0.7958,-85.302,98.693)"
       gradientUnits="userSpaceOnUse">
      <stop
         stop-color="#438bce"
         offset="0"
         id="stop1805" />
      <stop
         stop-color="#acf"
         offset="1"
         id="stop1807" />
    </radialGradient>
    <radialGradient
       id="g"
       cx="67.019"
       cy="423.95"
       r="22.016"
       gradientTransform="matrix(-0.01288,-1.4256,1.3489,-0.01218,-503.98,520.32)"
       gradientUnits="userSpaceOnUse">
      <stop
         stop-color="#033b89"
         offset="0"
         id="stop1810" />
      <stop
         stop-color="#1c5c90"
         offset="1"
         id="stop1812" />
    </radialGradient>
    <radialGradient
       id="f"
       cx="59.66"
       cy="419.76"
       r="20.549"
       gradientTransform="matrix(0.61654,-0.78732,1.9192,1.5029,-787.5,-163.44)"
       gradientUnits="userSpaceOnUse">
      <stop
         stop-color="#838989"
         offset="0"
         id="stop1815" />
      <stop
         stop-color="#ccc"
         offset="1"
         id="stop1817" />
    </radialGradient>
    <radialGradient
       id="e"
       cx="69.667"
       cy="412.35"
       r="10.072"
       gradientTransform="matrix(1.5287,-0.36988,0.67714,2.7985,-316.05,-709.76)"
       gradientUnits="userSpaceOnUse">
      <stop
         stop-color="#003380"
         offset="0"
         id="stop1820" />
      <stop
         stop-color="#1467b8"
         offset="1"
         id="stop1822" />
    </radialGradient>
    <radialGradient
       id="i"
       cx="63.032"
       cy="336.33"
       r="56.477"
       gradientTransform="matrix(1.239,0.00727,-0.00233,0.39706,1.5837,196.88)"
       gradientUnits="userSpaceOnUse"
       xlink:href="#d" />
  </defs>
  <g
     id="g2012"
     transform="matrix(1.1265773,0,0,1.2091386,0.37492754,-248.89055)">
    <path
       inkscape:connector-curvature="0"
       style="fill:url(#l)"
       id="path1828"
       d="m 9.047,344.58 c 3.4569,5.9997 31.376,3.5392 47.102,5.0572 29.455,2.8432 58.841,8.0312 88.493,7.5857 17.087,-0.25671 39.855,-1.0242 50.765,-5.9 4.0354,-1.8035 -10.969,-4.9351 -9.2158,-8.4286 26.003,2.3847 44.263,-5.0648 44.263,-5.0648 0,0 -40.367,-10.896 -60.792,-15.471 -16.397,-3.6722 -32.594,-8.8515 -49.531,-9.603 -24.208,-1.0741 -49.731,-0.16381 -72.174,7.3812 -15.104,5.0778 -43.54,16.408 -38.91,24.443 z" />
    <path
       inkscape:connector-curvature="0"
       style="fill:url(#k)"
       id="path1830"
       d="m 101.81,312.39 c -18.443,0.15655 -37.018,2.099 -53.851,7.7578 -8.1404,2.7366 -20.136,7.298 -28.758,12.172 5.4358,3.2306 23.898,1.7219 34.754,2.819 22.529,2.2767 44.996,6.4318 67.676,6.0751 13.069,-0.20556 30.483,-0.81598 38.827,-4.7202 3.0867,-1.4442 -8.3777,-3.9552 -7.0367,-6.7525 11.829,1.1357 28.259,-0.42533 39.664,-1.8793 -8.5857,-2.0968 -16.866,-4.0633 -23.418,-5.5069 -16.386,-3.61 -32.592,-8.8418 -49.529,-9.5934 -6.052,-0.26854 -12.18,-0.42368 -18.328,-0.3715 z" />
    <path
       style="fill:#d79348"
       inkscape:connector-curvature="0"
       id="path1832"
       d="m -1192.2,-153.78 c 0,3.9052 -1.5829,7.0711 -3.5355,7.0711 -1.9526,0 -3.5356,-3.1658 -3.5356,-7.0711 0,-3.9053 1.5829,-7.0711 3.5356,-7.0711 1.9527,0 3.5355,3.1658 3.5355,7.0711 z"
       transform="matrix(0.12271,0.06745,-0.03667,0.06671,163.03,434.63)" />
    <path
       style="fill:#d79348"
       inkscape:connector-curvature="0"
       id="path1834"
       d="m -1192.2,-153.78 c 0,3.9052 -1.5829,7.0711 -3.5355,7.0711 -1.9526,0 -3.5356,-3.1658 -3.5356,-7.0711 0,-3.9053 1.5829,-7.0711 3.5356,-7.0711 1.9527,0 3.5355,3.1658 3.5355,7.0711 z"
       transform="matrix(-0.13864,0.01673,-0.00909,-0.07537,-142.36,352.53)" />
    <path
       style="fill:#d79348"
       inkscape:connector-curvature="0"
       id="path1836"
       d="m -1192.2,-153.78 c 0,3.9052 -1.5829,7.0711 -3.5355,7.0711 -1.9526,0 -3.5356,-3.1658 -3.5356,-7.0711 0,-3.9053 1.5829,-7.0711 3.5356,-7.0711 1.9527,0 3.5355,3.1658 3.5355,7.0711 z"
       transform="matrix(-0.05022,-0.18866,0.10256,-0.0273,-14.771,112.11)" />
    <path
       style="fill:#d79348"
       inkscape:connector-curvature="0"
       id="path1838"
       d="m -1192.2,-153.78 c 0,3.9052 -1.5829,7.0711 -3.5355,7.0711 -1.9526,0 -3.5356,-3.1658 -3.5356,-7.0711 0,-3.9053 1.5829,-7.0711 3.5356,-7.0711 1.9527,0 3.5355,3.1658 3.5355,7.0711 z"
       transform="matrix(-0.07143,-0.20704,0.11256,-0.03883,-40.252,83.388)" />
    <path
       style="fill:#d79348"
       inkscape:connector-curvature="0"
       id="path1840"
       d="m -1192.2,-153.78 c 0,3.9052 -1.5829,7.0711 -3.5355,7.0711 -1.9526,0 -3.5356,-3.1658 -3.5356,-7.0711 0,-3.9053 1.5829,-7.0711 3.5356,-7.0711 1.9527,0 3.5355,3.1658 3.5355,7.0711 z"
       transform="matrix(0.17821,-0.0416,0.02262,0.09688,255.17,292.8)" />
    <path
       style="fill:#d79348"
       inkscape:connector-curvature="0"
       id="path1842"
       d="m -1192.2,-153.78 c 0,3.9052 -1.5829,7.0711 -3.5355,7.0711 -1.9526,0 -3.5356,-3.1658 -3.5356,-7.0711 0,-3.9053 1.5829,-7.0711 3.5356,-7.0711 1.9527,0 3.5355,3.1658 3.5355,7.0711 z"
       transform="matrix(-0.12506,0.06443,-0.03503,-0.06799,-104.87,402.8)" />
    <path
       style="fill:#d79348"
       inkscape:connector-curvature="0"
       id="path1844"
       d="m -1192.2,-153.78 c 0,3.9052 -1.5829,7.0711 -3.5355,7.0711 -1.9526,0 -3.5356,-3.1658 -3.5356,-7.0711 0,-3.9053 1.5829,-7.0711 3.5356,-7.0711 1.9527,0 3.5355,3.1658 3.5355,7.0711 z"
       transform="matrix(0.14613,0.04937,-0.02684,0.07944,239.17,420.69)" />
    <path
       style="fill:#d79348"
       inkscape:connector-curvature="0"
       id="path1846"
       d="m -1192.2,-153.78 c 0,3.9052 -1.5829,7.0711 -3.5355,7.0711 -1.9526,0 -3.5356,-3.1658 -3.5356,-7.0711 0,-3.9053 1.5829,-7.0711 3.5356,-7.0711 1.9527,0 3.5355,3.1658 3.5355,7.0711 z"
       transform="matrix(0.10128,0.06908,-0.03755,0.05506,199.5,423.74)" />
    <path
       style="fill:#d79348"
       inkscape:connector-curvature="0"
       id="path1848"
       d="m -1192.2,-153.78 c 0,3.9052 -1.5829,7.0711 -3.5355,7.0711 -1.9526,0 -3.5356,-3.1658 -3.5356,-7.0711 0,-3.9053 1.5829,-7.0711 3.5356,-7.0711 1.9527,0 3.5355,3.1658 3.5355,7.0711 z"
       transform="matrix(0.07485,-0.17726,0.09637,0.04069,184.74,132.77)" />
    <path
       style="fill:#d79348"
       inkscape:connector-curvature="0"
       id="path1850"
       d="m -1192.2,-153.78 c 0,3.9052 -1.5829,7.0711 -3.5355,7.0711 -1.9526,0 -3.5356,-3.1658 -3.5356,-7.0711 0,-3.9053 1.5829,-7.0711 3.5356,-7.0711 1.9527,0 3.5355,3.1658 3.5355,7.0711 z"
       transform="matrix(0.11027,-0.15338,0.08338,0.05995,228.04,176.04)" />
    <path
       style="fill:#d79348"
       inkscape:connector-curvature="0"
       id="path1852"
       d="m -1192.2,-153.78 c 0,3.9052 -1.5829,7.0711 -3.5355,7.0711 -1.9526,0 -3.5356,-3.1658 -3.5356,-7.0711 0,-3.9053 1.5829,-7.0711 3.5356,-7.0711 1.9527,0 3.5355,3.1658 3.5355,7.0711 z"
       transform="matrix(0.13189,0.11071,-0.06019,0.0717,253.56,477.96)" />
    <path
       style="fill:#d79348"
       inkscape:connector-curvature="0"
       id="path1854"
       d="m -1192.2,-153.78 c 0,3.9052 -1.5829,7.0711 -3.5355,7.0711 -1.9526,0 -3.5356,-3.1658 -3.5356,-7.0711 0,-3.9053 1.5829,-7.0711 3.5356,-7.0711 1.9527,0 3.5355,3.1658 3.5355,7.0711 z"
       transform="matrix(0.141,-0.04478,0.02434,0.07665,279,289.85)" />
    <path
       style="fill:#d79348"
       inkscape:connector-curvature="0"
       id="path1856"
       d="m -1192.2,-153.78 c 0,3.9052 -1.5829,7.0711 -3.5355,7.0711 -1.9526,0 -3.5356,-3.1658 -3.5356,-7.0711 0,-3.9053 1.5829,-7.0711 3.5356,-7.0711 1.9527,0 3.5355,3.1658 3.5355,7.0711 z"
       transform="matrix(0.03,-0.23063,0.12538,0.01631,184.74,66.648)" />
    <path
       style="fill:#d79348"
       inkscape:connector-curvature="0"
       id="path1858"
       d="m -1192.2,-153.78 c 0,3.9052 -1.5829,7.0711 -3.5355,7.0711 -1.9526,0 -3.5356,-3.1658 -3.5356,-7.0711 0,-3.9053 1.5829,-7.0711 3.5356,-7.0711 1.9527,0 3.5355,3.1658 3.5355,7.0711 z"
       transform="matrix(-0.1429,-0.01209,0.00657,-0.07769,-18.615,319.84)" />
    <path
       style="fill:#d79348"
       inkscape:connector-curvature="0"
       id="path1860"
       d="m -1192.2,-153.78 c 0,3.9052 -1.5829,7.0711 -3.5355,7.0711 -1.9526,0 -3.5356,-3.1658 -3.5356,-7.0711 0,-3.9053 1.5829,-7.0711 3.5356,-7.0711 1.9527,0 3.5355,3.1658 3.5355,7.0711 z"
       transform="matrix(-7.8978e-5,-0.12301,0.06687,-4.2936e-5,190.84,184.23)" />
    <path
       style="fill:#d79348"
       inkscape:connector-curvature="0"
       id="path1862"
       d="m -1192.2,-153.78 c 0,3.9052 -1.5829,7.0711 -3.5355,7.0711 -1.9526,0 -3.5356,-3.1658 -3.5356,-7.0711 0,-3.9053 1.5829,-7.0711 3.5356,-7.0711 1.9527,0 3.5355,3.1658 3.5355,7.0711 z"
       transform="matrix(-0.18249,-0.09804,0.0533,-0.09921,5.9252,207.84)" />
    <path
       style="fill:#d79348"
       inkscape:connector-curvature="0"
       id="path1864"
       d="m -1192.2,-153.78 c 0,3.9052 -1.5829,7.0711 -3.5355,7.0711 -1.9526,0 -3.5356,-3.1658 -3.5356,-7.0711 0,-3.9053 1.5829,-7.0711 3.5356,-7.0711 1.9527,0 3.5355,3.1658 3.5355,7.0711 z"
       transform="matrix(-0.22244,0.0147,-0.00799,-0.12093,-69.667,328.81)" />
    <path
       style="fill:#d79348"
       inkscape:connector-curvature="0"
       id="path1866"
       d="m -1192.2,-153.78 c 0,3.9052 -1.5829,7.0711 -3.5355,7.0711 -1.9526,0 -3.5356,-3.1658 -3.5356,-7.0711 0,-3.9053 1.5829,-7.0711 3.5356,-7.0711 1.9527,0 3.5355,3.1658 3.5355,7.0711 z"
       transform="matrix(0.20124,0.01568,-0.00852,0.1094,427.65,371.54)" />
    <path
       style="fill:#d79348"
       inkscape:connector-curvature="0"
       id="path1868"
       d="m -1192.2,-153.78 c 0,3.9052 -1.5829,7.0711 -3.5355,7.0711 -1.9526,0 -3.5356,-3.1658 -3.5356,-7.0711 0,-3.9053 1.5829,-7.0711 3.5356,-7.0711 1.9527,0 3.5355,3.1658 3.5355,7.0711 z"
       transform="matrix(-0.08998,0.0595,-0.03235,-0.04892,75.174,404.07)" />
    <path
       style="fill:#d79348"
       inkscape:connector-curvature="0"
       id="path1870"
       d="m -1192.2,-153.78 c 0,3.9052 -1.5829,7.0711 -3.5355,7.0711 -1.9526,0 -3.5356,-3.1658 -3.5356,-7.0711 0,-3.9053 1.5829,-7.0711 3.5356,-7.0711 1.9527,0 3.5355,3.1658 3.5355,7.0711 z"
       transform="matrix(-0.01199,0.16846,-0.09158,-0.00652,149.66,543.89)" />
    <path
       style="fill:#d79348"
       inkscape:connector-curvature="0"
       id="path1872"
       d="m -1192.2,-153.78 c 0,3.9052 -1.5829,7.0711 -3.5355,7.0711 -1.9526,0 -3.5356,-3.1658 -3.5356,-7.0711 0,-3.9053 1.5829,-7.0711 3.5356,-7.0711 1.9527,0 3.5355,3.1658 3.5355,7.0711 z"
       transform="matrix(-0.13,0.02431,-0.01322,-0.07067,-25.509,369.08)" />
    <path
       style="fill:#d79348"
       inkscape:connector-curvature="0"
       id="path1874"
       d="m -1192.2,-153.78 c 0,3.9052 -1.5829,7.0711 -3.5355,7.0711 -1.9526,0 -3.5356,-3.1658 -3.5356,-7.0711 0,-3.9053 1.5829,-7.0711 3.5356,-7.0711 1.9527,0 3.5355,3.1658 3.5355,7.0711 z"
       transform="matrix(0.06212,0.20661,-0.11232,0.03377,230.16,585.63)" />
    <path
       style="fill:#d79348"
       inkscape:connector-curvature="0"
       id="path1876"
       d="m -1192.2,-153.78 c 0,3.9052 -1.5829,7.0711 -3.5355,7.0711 -1.9526,0 -3.5356,-3.1658 -3.5356,-7.0711 0,-3.9053 1.5829,-7.0711 3.5356,-7.0711 1.9527,0 3.5355,3.1658 3.5355,7.0711 z"
       transform="matrix(0.13287,0.03843,-0.02089,0.07223,327.83,390.01)" />
    <path
       style="fill:#d79348"
       inkscape:connector-curvature="0"
       id="path1878"
       d="m -1192.2,-153.78 c 0,3.9052 -1.5829,7.0711 -3.5355,7.0711 -1.9526,0 -3.5356,-3.1658 -3.5356,-7.0711 0,-3.9053 1.5829,-7.0711 3.5356,-7.0711 1.9527,0 3.5355,3.1658 3.5355,7.0711 z"
       transform="matrix(-0.15415,-0.11411,0.06203,-0.08381,-0.48602,187.79)" />
    <path
       style="fill:#d79348"
       inkscape:connector-curvature="0"
       id="path1880"
       d="m -1192.2,-153.78 c 0,3.9052 -1.5829,7.0711 -3.5355,7.0711 -1.9526,0 -3.5356,-3.1658 -3.5356,-7.0711 0,-3.9053 1.5829,-7.0711 3.5356,-7.0711 1.9527,0 3.5355,3.1658 3.5355,7.0711 z"
       transform="matrix(0.03198,-0.23295,0.12664,0.01738,230.42,53.607)" />
    <path
       style="fill:#d79348"
       inkscape:connector-curvature="0"
       id="path1882"
       d="m -1192.2,-153.78 c 0,3.9052 -1.5829,7.0711 -3.5355,7.0711 -1.9526,0 -3.5356,-3.1658 -3.5356,-7.0711 0,-3.9053 1.5829,-7.0711 3.5356,-7.0711 1.9527,0 3.5355,3.1658 3.5355,7.0711 z"
       transform="matrix(-0.0709,-0.11955,0.06499,-0.03854,61.613,177.36)" />
    <path
       style="fill:#d79348"
       inkscape:connector-curvature="0"
       id="path1884"
       d="m -1192.2,-153.78 c 0,3.9052 -1.5829,7.0711 -3.5355,7.0711 -1.9526,0 -3.5356,-3.1658 -3.5356,-7.0711 0,-3.9053 1.5829,-7.0711 3.5356,-7.0711 1.9527,0 3.5355,3.1658 3.5355,7.0711 z"
       transform="matrix(-0.09692,0.13863,-0.07537,-0.05269,-17.888,479.93)" />
    <path
       style="fill:#d79348"
       inkscape:connector-curvature="0"
       id="path1886"
       d="m -1192.2,-153.78 c 0,3.9052 -1.5829,7.0711 -3.5355,7.0711 -1.9526,0 -3.5356,-3.1658 -3.5356,-7.0711 0,-3.9053 1.5829,-7.0711 3.5356,-7.0711 1.9527,0 3.5355,3.1658 3.5355,7.0711 z"
       transform="matrix(0.08452,0.07873,-0.0428,0.04595,216.12,427.19)" />
    <path
       style="fill:#d79348"
       inkscape:connector-curvature="0"
       id="path1888"
       d="m -1192.2,-153.78 c 0,3.9052 -1.5829,7.0711 -3.5355,7.0711 -1.9526,0 -3.5356,-3.1658 -3.5356,-7.0711 0,-3.9053 1.5829,-7.0711 3.5356,-7.0711 1.9527,0 3.5355,3.1658 3.5355,7.0711 z"
       transform="matrix(0.13782,-0.047,0.02555,0.07493,277.97,278.38)" />
    <path
       style="fill:#d79348"
       inkscape:connector-curvature="0"
       id="path1890"
       d="m -1192.2,-153.78 c 0,3.9052 -1.5829,7.0711 -3.5355,7.0711 -1.9526,0 -3.5356,-3.1658 -3.5356,-7.0711 0,-3.9053 1.5829,-7.0711 3.5356,-7.0711 1.9527,0 3.5355,3.1658 3.5355,7.0711 z"
       transform="matrix(-0.00576,-0.16944,0.09212,-0.00313,59.74,120.56)" />
    <path
       style="fill:#d79348"
       inkscape:connector-curvature="0"
       id="path1892"
       d="m -1192.2,-153.78 c 0,3.9052 -1.5829,7.0711 -3.5355,7.0711 -1.9526,0 -3.5356,-3.1658 -3.5356,-7.0711 0,-3.9053 1.5829,-7.0711 3.5356,-7.0711 1.9527,0 3.5355,3.1658 3.5355,7.0711 z"
       transform="matrix(0.17203,0.15953,-0.08673,0.09353,243.12,542.12)" />
    <path
       style="fill:#d79348"
       inkscape:connector-curvature="0"
       id="path1894"
       d="m -1192.2,-153.78 c 0,3.9052 -1.5829,7.0711 -3.5355,7.0711 -1.9526,0 -3.5356,-3.1658 -3.5356,-7.0711 0,-3.9053 1.5829,-7.0711 3.5356,-7.0711 1.9527,0 3.5355,3.1658 3.5355,7.0711 z"
       transform="matrix(-0.22684,-0.01113,0.00605,-0.12332,-212.74,288.61)" />
    <path
       style="fill:#d79348"
       inkscape:connector-curvature="0"
       id="path1896"
       d="m -1192.2,-153.78 c 0,3.9052 -1.5829,7.0711 -3.5355,7.0711 -1.9526,0 -3.5356,-3.1658 -3.5356,-7.0711 0,-3.9053 1.5829,-7.0711 3.5356,-7.0711 1.9527,0 3.5355,3.1658 3.5355,7.0711 z"
       transform="matrix(-0.02626,-0.1088,0.05915,-0.01428,47.076,192.06)" />
    <path
       style="fill:#d79348"
       inkscape:connector-curvature="0"
       id="path1898"
       d="m -1192.2,-153.78 c 0,3.9052 -1.5829,7.0711 -3.5355,7.0711 -1.9526,0 -3.5356,-3.1658 -3.5356,-7.0711 0,-3.9053 1.5829,-7.0711 3.5356,-7.0711 1.9527,0 3.5355,3.1658 3.5355,7.0711 z"
       transform="matrix(-0.16209,-0.04045,0.02199,-0.08812,-114.7,267.23)" />
    <path
       style="fill:#d79348"
       inkscape:connector-curvature="0"
       id="path1900"
       d="m -1192.2,-153.78 c 0,3.9052 -1.5829,7.0711 -3.5355,7.0711 -1.9526,0 -3.5356,-3.1658 -3.5356,-7.0711 0,-3.9053 1.5829,-7.0711 3.5356,-7.0711 1.9527,0 3.5355,3.1658 3.5355,7.0711 z"
       transform="matrix(0.21309,-0.06615,0.03596,0.11585,343.83,266.92)" />
    <path
       style="fill:#d79348"
       inkscape:connector-curvature="0"
       id="path1902"
       d="m -1192.2,-153.78 c 0,3.9052 -1.5829,7.0711 -3.5355,7.0711 -1.9526,0 -3.5356,-3.1658 -3.5356,-7.0711 0,-3.9053 1.5829,-7.0711 3.5356,-7.0711 1.9527,0 3.5355,3.1658 3.5355,7.0711 z"
       transform="matrix(0.12831,0.11138,-0.06055,0.06975,236.17,458.39)" />
    <path
       style="fill:#d79348"
       inkscape:connector-curvature="0"
       id="path1904"
       d="m -1192.2,-153.78 c 0,3.9052 -1.5829,7.0711 -3.5355,7.0711 -1.9526,0 -3.5356,-3.1658 -3.5356,-7.0711 0,-3.9053 1.5829,-7.0711 3.5356,-7.0711 1.9527,0 3.5355,3.1658 3.5355,7.0711 z"
       transform="matrix(-0.00951,0.10593,-0.05759,-0.00517,70.17,446.64)" />
    <path
       style="fill:#d79348"
       inkscape:connector-curvature="0"
       id="path1906"
       d="m -1192.2,-153.78 c 0,3.9052 -1.5829,7.0711 -3.5355,7.0711 -1.9526,0 -3.5356,-3.1658 -3.5356,-7.0711 0,-3.9053 1.5829,-7.0711 3.5356,-7.0711 1.9527,0 3.5355,3.1658 3.5355,7.0711 z"
       transform="matrix(0.08805,-0.08462,0.046,0.04787,207.77,234.79)" />
    <path
       style="fill:#d79348"
       inkscape:connector-curvature="0"
       id="path1908"
       d="m -1192.2,-153.78 c 0,3.9052 -1.5829,7.0711 -3.5355,7.0711 -1.9526,0 -3.5356,-3.1658 -3.5356,-7.0711 0,-3.9053 1.5829,-7.0711 3.5356,-7.0711 1.9527,0 3.5355,3.1658 3.5355,7.0711 z"
       transform="matrix(0.16094,0.07255,-0.03944,0.0875,288.5,425.11)" />
    <path
       style="fill:#d79348"
       inkscape:connector-curvature="0"
       id="path1910"
       d="m -1192.2,-153.78 c 0,3.9052 -1.5829,7.0711 -3.5355,7.0711 -1.9526,0 -3.5356,-3.1658 -3.5356,-7.0711 0,-3.9053 1.5829,-7.0711 3.5356,-7.0711 1.9527,0 3.5355,3.1658 3.5355,7.0711 z"
       transform="matrix(-0.10001,0.06351,-0.03452,-0.05437,-5.1244,384.74)" />
    <path
       style="fill:#d79348"
       inkscape:connector-curvature="0"
       id="path1912"
       d="m -1192.2,-153.78 c 0,3.9052 -1.5829,7.0711 -3.5355,7.0711 -1.9526,0 -3.5356,-3.1658 -3.5356,-7.0711 0,-3.9053 1.5829,-7.0711 3.5356,-7.0711 1.9527,0 3.5355,3.1658 3.5355,7.0711 z"
       transform="matrix(-0.12106,-0.16896,0.09186,-0.06581,-20.273,107.6)" />
    <path
       style="fill:#d79348"
       inkscape:connector-curvature="0"
       id="path1914"
       d="m -1192.2,-153.78 c 0,3.9052 -1.5829,7.0711 -3.5355,7.0711 -1.9526,0 -3.5356,-3.1658 -3.5356,-7.0711 0,-3.9053 1.5829,-7.0711 3.5356,-7.0711 1.9527,0 3.5355,3.1658 3.5355,7.0711 z"
       transform="matrix(0.1794,-0.13674,0.07434,0.09753,340.45,182.23)" />
    <path
       style="fill:#d79348"
       inkscape:connector-curvature="0"
       id="path1916"
       d="m -1192.2,-153.78 c 0,3.9052 -1.5829,7.0711 -3.5355,7.0711 -1.9526,0 -3.5356,-3.1658 -3.5356,-7.0711 0,-3.9053 1.5829,-7.0711 3.5356,-7.0711 1.9527,0 3.5355,3.1658 3.5355,7.0711 z"
       transform="matrix(-0.07433,-0.15325,0.08331,-0.04041,48.155,124.47)" />
    <path
       style="fill:#d79348"
       inkscape:connector-curvature="0"
       id="path1918"
       d="m -1192.2,-153.78 c 0,3.9052 -1.5829,7.0711 -3.5355,7.0711 -1.9526,0 -3.5356,-3.1658 -3.5356,-7.0711 0,-3.9053 1.5829,-7.0711 3.5356,-7.0711 1.9527,0 3.5355,3.1658 3.5355,7.0711 z"
       transform="matrix(-0.05626,0.09006,-0.04896,-0.03058,72.833,432.02)" />
    <path
       style="fill:#d79348"
       inkscape:connector-curvature="0"
       id="path1920"
       d="m -1192.2,-153.78 c 0,3.9052 -1.5829,7.0711 -3.5355,7.0711 -1.9526,0 -3.5356,-3.1658 -3.5356,-7.0711 0,-3.9053 1.5829,-7.0711 3.5356,-7.0711 1.9527,0 3.5355,3.1658 3.5355,7.0711 z"
       transform="matrix(-0.07183,-0.08147,0.04429,-0.03905,54.254,228.06)" />
    <path
       style="fill:#d79348"
       inkscape:connector-curvature="0"
       id="path1922"
       d="m -1192.2,-153.78 c 0,3.9052 -1.5829,7.0711 -3.5355,7.0711 -1.9526,0 -3.5356,-3.1658 -3.5356,-7.0711 0,-3.9053 1.5829,-7.0711 3.5356,-7.0711 1.9527,0 3.5355,3.1658 3.5355,7.0711 z"
       transform="matrix(0.21085,0.06654,-0.03617,0.11463,385.7,419.72)" />
    <path
       style="fill:#d79348"
       inkscape:connector-curvature="0"
       id="path1924"
       d="m -1192.2,-153.78 c 0,3.9052 -1.5829,7.0711 -3.5355,7.0711 -1.9526,0 -3.5356,-3.1658 -3.5356,-7.0711 0,-3.9053 1.5829,-7.0711 3.5356,-7.0711 1.9527,0 3.5355,3.1658 3.5355,7.0711 z"
       transform="matrix(-0.10391,0.19515,-0.10609,-0.05649,-3.0371,552.01)" />
    <path
       style="fill:#d79348"
       inkscape:connector-curvature="0"
       id="path1926"
       d="m -1192.2,-153.78 c 0,3.9052 -1.5829,7.0711 -3.5355,7.0711 -1.9526,0 -3.5356,-3.1658 -3.5356,-7.0711 0,-3.9053 1.5829,-7.0711 3.5356,-7.0711 1.9527,0 3.5355,3.1658 3.5355,7.0711 z"
       transform="matrix(-0.16703,4.9769e-4,-2.7057e-4,-0.09081,-53.89,311.87)" />
    <path
       style="fill:#d79348"
       inkscape:connector-curvature="0"
       id="path1928"
       d="m -1192.2,-153.78 c 0,3.9052 -1.5829,7.0711 -3.5355,7.0711 -1.9526,0 -3.5356,-3.1658 -3.5356,-7.0711 0,-3.9053 1.5829,-7.0711 3.5356,-7.0711 1.9527,0 3.5355,3.1658 3.5355,7.0711 z"
       transform="matrix(0.10362,-0.19219,0.10449,0.05633,293.53,104.55)" />
    <path
       style="fill:#d79348"
       inkscape:connector-curvature="0"
       id="path1930"
       d="m -1192.2,-153.78 c 0,3.9052 -1.5829,7.0711 -3.5355,7.0711 -1.9526,0 -3.5356,-3.1658 -3.5356,-7.0711 0,-3.9053 1.5829,-7.0711 3.5356,-7.0711 1.9527,0 3.5355,3.1658 3.5355,7.0711 z"
       transform="matrix(0.08105,0.14807,-0.0805,0.04406,222.24,535.01)" />
    <path
       style="fill:#d79348"
       inkscape:connector-curvature="0"
       id="path1932"
       d="m -1192.2,-153.78 c 0,3.9052 -1.5829,7.0711 -3.5355,7.0711 -1.9526,0 -3.5356,-3.1658 -3.5356,-7.0711 0,-3.9053 1.5829,-7.0711 3.5356,-7.0711 1.9527,0 3.5355,3.1658 3.5355,7.0711 z"
       transform="matrix(0.05413,-0.09439,0.05132,0.02943,189.02,238.05)" />
    <path
       style="fill:#d79348"
       inkscape:connector-curvature="0"
       id="path1934"
       d="m -1192.2,-153.78 c 0,3.9052 -1.5829,7.0711 -3.5355,7.0711 -1.9526,0 -3.5356,-3.1658 -3.5356,-7.0711 0,-3.9053 1.5829,-7.0711 3.5356,-7.0711 1.9527,0 3.5355,3.1658 3.5355,7.0711 z"
       transform="matrix(0.16214,0.07371,-0.04007,0.08815,326.29,453.4)" />
    <path
       style="fill:#d79348"
       inkscape:connector-curvature="0"
       id="path1936"
       d="m -1192.2,-153.78 c 0,3.9052 -1.5829,7.0711 -3.5355,7.0711 -1.9526,0 -3.5356,-3.1658 -3.5356,-7.0711 0,-3.9053 1.5829,-7.0711 3.5356,-7.0711 1.9527,0 3.5355,3.1658 3.5355,7.0711 z"
       transform="matrix(-0.08706,-0.13245,0.07201,-0.04733,-9.3971,183.4)" />
    <path
       style="fill:#d79348"
       inkscape:connector-curvature="0"
       id="path1938"
       d="m -1192.2,-153.78 c 0,3.9052 -1.5829,7.0711 -3.5355,7.0711 -1.9526,0 -3.5356,-3.1658 -3.5356,-7.0711 0,-3.9053 1.5829,-7.0711 3.5356,-7.0711 1.9527,0 3.5355,3.1658 3.5355,7.0711 z"
       transform="matrix(0.0412,-0.11407,0.06201,0.0224,97.601,206.33)" />
    <path
       style="fill:#d79348"
       inkscape:connector-curvature="0"
       id="path1940"
       d="m -1192.2,-153.78 c 0,3.9052 -1.5829,7.0711 -3.5355,7.0711 -1.9526,0 -3.5356,-3.1658 -3.5356,-7.0711 0,-3.9053 1.5829,-7.0711 3.5356,-7.0711 1.9527,0 3.5355,3.1658 3.5355,7.0711 z"
       transform="matrix(-0.21213,-0.09876,0.05369,-0.11532,-223.29,203.92)" />
    <path
       style="fill:#d79348"
       inkscape:connector-curvature="0"
       id="path1942"
       d="m -1192.2,-153.78 c 0,3.9052 -1.5829,7.0711 -3.5355,7.0711 -1.9526,0 -3.5356,-3.1658 -3.5356,-7.0711 0,-3.9053 1.5829,-7.0711 3.5356,-7.0711 1.9527,0 3.5355,3.1658 3.5355,7.0711 z"
       transform="matrix(0.08946,0.13637,-0.07414,0.04863,107.42,509.21)" />
    <path
       style="fill:#d79348"
       inkscape:connector-curvature="0"
       id="path1944"
       d="m -1192.2,-153.78 c 0,3.9052 -1.5829,7.0711 -3.5355,7.0711 -1.9526,0 -3.5356,-3.1658 -3.5356,-7.0711 0,-3.9053 1.5829,-7.0711 3.5356,-7.0711 1.9527,0 3.5355,3.1658 3.5355,7.0711 z"
       transform="matrix(-0.07305,-0.08918,0.04848,-0.03972,-52.267,221.83)" />
    <path
       style="fill:#d79348"
       inkscape:connector-curvature="0"
       id="path1946"
       d="m -1192.2,-153.78 c 0,3.9052 -1.5829,7.0711 -3.5355,7.0711 -1.9526,0 -3.5356,-3.1658 -3.5356,-7.0711 0,-3.9053 1.5829,-7.0711 3.5356,-7.0711 1.9527,0 3.5355,3.1658 3.5355,7.0711 z"
       transform="matrix(-0.05278,0.1897,-0.10313,-0.02869,-59.328,555.83)" />
    <path
       style="fill:#d79348"
       inkscape:connector-curvature="0"
       id="path1948"
       d="m -1192.2,-153.78 c 0,3.9052 -1.5829,7.0711 -3.5355,7.0711 -1.9526,0 -3.5356,-3.1658 -3.5356,-7.0711 0,-3.9053 1.5829,-7.0711 3.5356,-7.0711 1.9527,0 3.5355,3.1658 3.5355,7.0711 z"
       transform="matrix(0.11832,0.02774,-0.01508,0.06433,295.04,388.53)" />
    <path
       style="fill:#d79348"
       inkscape:connector-curvature="0"
       id="path1950"
       d="m -1192.2,-153.78 c 0,3.9052 -1.5829,7.0711 -3.5355,7.0711 -1.9526,0 -3.5356,-3.1658 -3.5356,-7.0711 0,-3.9053 1.5829,-7.0711 3.5356,-7.0711 1.9527,0 3.5355,3.1658 3.5355,7.0711 z"
       transform="matrix(0.18139,0.0568,-0.03088,0.09861,369.11,415.82)" />
    <path
       style="fill:#d79348"
       inkscape:connector-curvature="0"
       id="path1952"
       d="m -1192.2,-153.78 c 0,3.9052 -1.5829,7.0711 -3.5355,7.0711 -1.9526,0 -3.5356,-3.1658 -3.5356,-7.0711 0,-3.9053 1.5829,-7.0711 3.5356,-7.0711 1.9527,0 3.5355,3.1658 3.5355,7.0711 z"
       transform="matrix(0.0775,0.19845,-0.10788,0.04213,223.7,583.5)" />
    <path
       style="fill:#d79348"
       inkscape:connector-curvature="0"
       id="path1954"
       d="m -1192.2,-153.78 c 0,3.9052 -1.5829,7.0711 -3.5355,7.0711 -1.9526,0 -3.5356,-3.1658 -3.5356,-7.0711 0,-3.9053 1.5829,-7.0711 3.5356,-7.0711 1.9527,0 3.5355,3.1658 3.5355,7.0711 z"
       transform="matrix(-0.10257,-0.02684,0.01459,-0.05576,57.564,316.61)" />
    <path
       style="fill:#d79348"
       inkscape:connector-curvature="0"
       id="path1956"
       d="m -1192.2,-153.78 c 0,3.9052 -1.5829,7.0711 -3.5355,7.0711 -1.9526,0 -3.5356,-3.1658 -3.5356,-7.0711 0,-3.9053 1.5829,-7.0711 3.5356,-7.0711 1.9527,0 3.5355,3.1658 3.5355,7.0711 z"
       transform="matrix(-0.14903,0.02345,-0.01275,-0.08102,2.9804,362.37)" />
    <path
       style="fill:#d79348"
       inkscape:connector-curvature="0"
       id="path1958"
       d="m -1192.2,-153.78 c 0,3.9052 -1.5829,7.0711 -3.5355,7.0711 -1.9526,0 -3.5356,-3.1658 -3.5356,-7.0711 0,-3.9053 1.5829,-7.0711 3.5356,-7.0711 1.9527,0 3.5355,3.1658 3.5355,7.0711 z"
       transform="matrix(0.11198,0.05347,-0.02907,0.06087,298.11,424.97)" />
    <path
       style="fill:#d79348"
       inkscape:connector-curvature="0"
       id="path1960"
       d="m -1192.2,-153.78 c 0,3.9052 -1.5829,7.0711 -3.5355,7.0711 -1.9526,0 -3.5356,-3.1658 -3.5356,-7.0711 0,-3.9053 1.5829,-7.0711 3.5356,-7.0711 1.9527,0 3.5355,3.1658 3.5355,7.0711 z"
       transform="matrix(0.07296,-0.13187,0.07169,0.03967,243.21,189.51)" />
    <path
       style="fill:#d79348"
       inkscape:connector-curvature="0"
       id="path1962"
       d="m -1192.2,-153.78 c 0,3.9052 -1.5829,7.0711 -3.5355,7.0711 -1.9526,0 -3.5356,-3.1658 -3.5356,-7.0711 0,-3.9053 1.5829,-7.0711 3.5356,-7.0711 1.9527,0 3.5355,3.1658 3.5355,7.0711 z"
       transform="matrix(0.04431,-0.09397,0.05109,0.02409,201.88,239.29)" />
    <path
       style="fill:#d79348"
       inkscape:connector-curvature="0"
       id="path1964"
       d="m -1192.2,-153.78 c 0,3.9052 -1.5829,7.0711 -3.5355,7.0711 -1.9526,0 -3.5356,-3.1658 -3.5356,-7.0711 0,-3.9053 1.5829,-7.0711 3.5356,-7.0711 1.9527,0 3.5355,3.1658 3.5355,7.0711 z"
       transform="matrix(0.11262,0.19021,-0.1034,0.06122,214.84,577.92)" />
    <path
       style="fill:#d79348"
       inkscape:connector-curvature="0"
       id="path1966"
       d="m -1192.2,-153.78 c 0,3.9052 -1.5829,7.0711 -3.5355,7.0711 -1.9526,0 -3.5356,-3.1658 -3.5356,-7.0711 0,-3.9053 1.5829,-7.0711 3.5356,-7.0711 1.9527,0 3.5355,3.1658 3.5355,7.0711 z"
       transform="matrix(0.14371,0.09498,-0.05164,0.07813,284.53,479.11)" />
    <path
       style="fill:#d79348"
       inkscape:connector-curvature="0"
       id="path1968"
       d="m -1192.2,-153.78 c 0,3.9052 -1.5829,7.0711 -3.5355,7.0711 -1.9526,0 -3.5356,-3.1658 -3.5356,-7.0711 0,-3.9053 1.5829,-7.0711 3.5356,-7.0711 1.9527,0 3.5355,3.1658 3.5355,7.0711 z"
       transform="matrix(0.00682,0.22165,-0.1205,0.00371,132.64,610.74)" />
    <path
       style="fill:#d79348"
       inkscape:connector-curvature="0"
       id="path1970"
       d="m -1192.2,-153.78 c 0,3.9052 -1.5829,7.0711 -3.5355,7.0711 -1.9526,0 -3.5356,-3.1658 -3.5356,-7.0711 0,-3.9053 1.5829,-7.0711 3.5356,-7.0711 1.9527,0 3.5355,3.1658 3.5355,7.0711 z"
       transform="matrix(-0.06297,0.09968,-0.05419,-0.03423,76.559,464.11)" />
    <path
       style="fill:#d79348"
       inkscape:connector-curvature="0"
       id="path1972"
       d="m -1192.2,-153.78 c 0,3.9052 -1.5829,7.0711 -3.5355,7.0711 -1.9526,0 -3.5356,-3.1658 -3.5356,-7.0711 0,-3.9053 1.5829,-7.0711 3.5356,-7.0711 1.9527,0 3.5355,3.1658 3.5355,7.0711 z"
       transform="matrix(0.05592,-0.13611,0.074,0.0304,186.01,184.21)" />
    <path
       style="fill:#d79348"
       inkscape:connector-curvature="0"
       id="path1974"
       d="m -1192.2,-153.78 c 0,3.9052 -1.5829,7.0711 -3.5355,7.0711 -1.9526,0 -3.5356,-3.1658 -3.5356,-7.0711 0,-3.9053 1.5829,-7.0711 3.5356,-7.0711 1.9527,0 3.5355,3.1658 3.5355,7.0711 z"
       transform="matrix(-0.05522,0.12758,-0.06936,-0.03002,-12.763,474.31)" />
    <path
       style="fill:#d79348"
       inkscape:connector-curvature="0"
       id="path1976"
       d="m -1192.2,-153.78 c 0,3.9052 -1.5829,7.0711 -3.5355,7.0711 -1.9526,0 -3.5356,-3.1658 -3.5356,-7.0711 0,-3.9053 1.5829,-7.0711 3.5356,-7.0711 1.9527,0 3.5355,3.1658 3.5355,7.0711 z"
       transform="matrix(0.21807,0.01678,-0.00912,0.11855,335.76,374.79)" />
    <path
       style="fill:#d79348"
       inkscape:connector-curvature="0"
       id="path1978"
       d="m -1192.2,-153.78 c 0,3.9052 -1.5829,7.0711 -3.5355,7.0711 -1.9526,0 -3.5356,-3.1658 -3.5356,-7.0711 0,-3.9053 1.5829,-7.0711 3.5356,-7.0711 1.9527,0 3.5355,3.1658 3.5355,7.0711 z"
       transform="matrix(0.14995,-0.13389,0.07279,0.08152,264.89,188.8)" />
    <path
       style="fill:#d79348"
       inkscape:connector-curvature="0"
       id="path1980"
       d="m -1192.2,-153.78 c 0,3.9052 -1.5829,7.0711 -3.5355,7.0711 -1.9526,0 -3.5356,-3.1658 -3.5356,-7.0711 0,-3.9053 1.5829,-7.0711 3.5356,-7.0711 1.9527,0 3.5355,3.1658 3.5355,7.0711 z"
       transform="matrix(-0.1466,-0.03393,0.01845,-0.0797,-100.36,279.25)" />
    <path
       style="fill:#d79348"
       inkscape:connector-curvature="0"
       id="path1982"
       d="m -1192.2,-153.78 c 0,3.9052 -1.5829,7.0711 -3.5355,7.0711 -1.9526,0 -3.5356,-3.1658 -3.5356,-7.0711 0,-3.9053 1.5829,-7.0711 3.5356,-7.0711 1.9527,0 3.5355,3.1658 3.5355,7.0711 z"
       transform="matrix(-0.17396,0.05225,-0.02841,-0.09457,-56.077,376.75)" />
    <path
       style="fill:#d79348"
       inkscape:connector-curvature="0"
       id="path1984"
       d="m -1192.2,-153.78 c 0,3.9052 -1.5829,7.0711 -3.5355,7.0711 -1.9526,0 -3.5356,-3.1658 -3.5356,-7.0711 0,-3.9053 1.5829,-7.0711 3.5356,-7.0711 1.9527,0 3.5355,3.1658 3.5355,7.0711 z"
       transform="matrix(-0.13949,-0.13049,0.07094,-0.07584,-12.526,169.4)" />
    <path
       style="fill:#d79348"
       inkscape:connector-curvature="0"
       id="path1986"
       d="m -1192.2,-153.78 c 0,3.9052 -1.5829,7.0711 -3.5355,7.0711 -1.9526,0 -3.5356,-3.1658 -3.5356,-7.0711 0,-3.9053 1.5829,-7.0711 3.5356,-7.0711 1.9527,0 3.5355,3.1658 3.5355,7.0711 z"
       transform="matrix(-0.10573,0.15158,-0.08241,-0.05748,14.141,497.19)" />
    <path
       style="fill:#d79348"
       inkscape:connector-curvature="0"
       id="path1988"
       d="m -1192.2,-153.78 c 0,3.9052 -1.5829,7.0711 -3.5355,7.0711 -1.9526,0 -3.5356,-3.1658 -3.5356,-7.0711 0,-3.9053 1.5829,-7.0711 3.5356,-7.0711 1.9527,0 3.5355,3.1658 3.5355,7.0711 z"
       transform="matrix(0.01233,-0.19287,0.10485,0.0067,244.26,110.08)" />
    <path
       style="fill:#d79348"
       inkscape:connector-curvature="0"
       id="path1990"
       d="m -1192.2,-153.78 c 0,3.9052 -1.5829,7.0711 -3.5355,7.0711 -1.9526,0 -3.5356,-3.1658 -3.5356,-7.0711 0,-3.9053 1.5829,-7.0711 3.5356,-7.0711 1.9527,0 3.5355,3.1658 3.5355,7.0711 z"
       transform="matrix(0.00239,0.23606,-0.12833,0.0013,194.35,619.09)" />
    <path
       style="fill:#d79348"
       inkscape:connector-curvature="0"
       id="path1992"
       d="m -1192.2,-153.78 c 0,3.9052 -1.5829,7.0711 -3.5355,7.0711 -1.9526,0 -3.5356,-3.1658 -3.5356,-7.0711 0,-3.9053 1.5829,-7.0711 3.5356,-7.0711 1.9527,0 3.5355,3.1658 3.5355,7.0711 z"
       transform="matrix(0.09528,-0.03989,0.02169,0.0518,170.1,284.43)" />
    <path
       style="fill:#d79348"
       inkscape:connector-curvature="0"
       id="path1994"
       d="m -1192.2,-153.78 c 0,3.9052 -1.5829,7.0711 -3.5355,7.0711 -1.9526,0 -3.5356,-3.1658 -3.5356,-7.0711 0,-3.9053 1.5829,-7.0711 3.5356,-7.0711 1.9527,0 3.5355,3.1658 3.5355,7.0711 z"
       transform="matrix(-0.03479,0.23178,-0.12601,-0.01891,31.181,596.36)" />
    <path
       style="fill:#d79348"
       inkscape:connector-curvature="0"
       id="path1996"
       d="m -1192.2,-153.78 c 0,3.9052 -1.5829,7.0711 -3.5355,7.0711 -1.9526,0 -3.5356,-3.1658 -3.5356,-7.0711 0,-3.9053 1.5829,-7.0711 3.5356,-7.0711 1.9527,0 3.5355,3.1658 3.5355,7.0711 z"
       transform="matrix(-0.14496,0.0133,-0.00723,-0.07881,-89.569,330.55)" />
    <path
       style="fill:#d79348"
       inkscape:connector-curvature="0"
       id="path1998"
       d="m -1192.2,-153.78 c 0,3.9052 -1.5829,7.0711 -3.5355,7.0711 -1.9526,0 -3.5356,-3.1658 -3.5356,-7.0711 0,-3.9053 1.5829,-7.0711 3.5356,-7.0711 1.9527,0 3.5355,3.1658 3.5355,7.0711 z"
       transform="matrix(0.0331,0.09544,-0.05189,0.01799,129.48,434.42)" />
    <path
       style="fill:#d79348"
       inkscape:connector-curvature="0"
       id="path2000"
       d="m -1192.2,-153.78 c 0,3.9052 -1.5829,7.0711 -3.5355,7.0711 -1.9526,0 -3.5356,-3.1658 -3.5356,-7.0711 0,-3.9053 1.5829,-7.0711 3.5356,-7.0711 1.9527,0 3.5355,3.1658 3.5355,7.0711 z"
       transform="matrix(0.02464,0.14817,-0.08055,0.0134,110.02,492.4)" />
    <path
       style="fill:#d79348"
       inkscape:connector-curvature="0"
       id="path2002"
       d="m -1192.2,-153.78 c 0,3.9052 -1.5829,7.0711 -3.5355,7.0711 -1.9526,0 -3.5356,-3.1658 -3.5356,-7.0711 0,-3.9053 1.5829,-7.0711 3.5356,-7.0711 1.9527,0 3.5355,3.1658 3.5355,7.0711 z"
       transform="matrix(0.14977,0.02908,-0.01581,0.08142,281.22,366.17)" />
    <path
       style="fill:#d79348"
       inkscape:connector-curvature="0"
       id="path2004"
       d="m -1192.2,-153.78 c 0,3.9052 -1.5829,7.0711 -3.5355,7.0711 -1.9526,0 -3.5356,-3.1658 -3.5356,-7.0711 0,-3.9053 1.5829,-7.0711 3.5356,-7.0711 1.9527,0 3.5355,3.1658 3.5355,7.0711 z"
       transform="matrix(-0.1007,0.19377,-0.10534,-0.05475,-47.105,540.02)" />
    <path
       style="fill:#d79348"
       inkscape:connector-curvature="0"
       id="path2006"
       d="m -1192.2,-153.78 c 0,3.9052 -1.5829,7.0711 -3.5355,7.0711 -1.9526,0 -3.5356,-3.1658 -3.5356,-7.0711 0,-3.9053 1.5829,-7.0711 3.5356,-7.0711 1.9527,0 3.5355,3.1658 3.5355,7.0711 z"
       transform="matrix(0.10349,-0.08348,0.04538,0.05626,187.08,236.66)" />
    <path
       style="fill:#d79348"
       inkscape:connector-curvature="0"
       id="path2008"
       d="m -1192.2,-153.78 c 0,3.9052 -1.5829,7.0711 -3.5355,7.0711 -1.9526,0 -3.5356,-3.1658 -3.5356,-7.0711 0,-3.9053 1.5829,-7.0711 3.5356,-7.0711 1.9527,0 3.5355,3.1658 3.5355,7.0711 z"
       transform="matrix(-0.04147,0.11745,-0.06385,-0.02255,30.931,452.3)" />
    <path
       style="fill:#d79348"
       inkscape:connector-curvature="0"
       id="path2010"
       d="m -1192.2,-153.78 c 0,3.9052 -1.5829,7.0711 -3.5355,7.0711 -1.9526,0 -3.5356,-3.1658 -3.5356,-7.0711 0,-3.9053 1.5829,-7.0711 3.5356,-7.0711 1.9527,0 3.5355,3.1658 3.5355,7.0711 z"
       transform="matrix(-0.03556,0.23662,-0.12864,-0.01933,6.6886,595.99)" />
  </g>
  <path
     style="fill:#c6dad8;stroke-width:1.23909998"
     inkscape:connector-curvature="0"
     id="path2014"
     d="m 112.91445,41.526363 1.15701,-3.584221 35.95992,1.820734 7.95539,3.177052 -1.20259,4.574138 -1.17772,0.441826 -2.86009,4.663229 -1.59125,2.241532 -13.46034,-2.107709 -21.66443,-3.477411 -2.87112,-2.281555 -0.38102,-2.497653 z" />
  <path
     inkscape:connector-curvature="0"
     style="opacity:0.3;fill:url(#i);filter:url(#z)"
     id="path2016"
     d="m 101.38,312.38 c -19.04,0.16028 -38.338,2.6824 -55.946,10.258 -2.8063,0.77727 -5.1741,1.874 -2.281,4.5457 3.6805,6.2204 11.091,8.6368 17.683,10.393 15.083,3.3417 30.59,1.0026 45.869,1.4284 8.8237,0.0627 18.007,-1.7546 24.996,-7.4798 5.1477,-3.9461 9.1932,-9.093 13.273,-14.083 -11.144,-3.0258 -22.61,-4.9453 -34.18,-4.9742 -3.1371,-0.0808 -6.2761,-0.11451 -9.4138,-0.088 z"
     transform="matrix(1.2391,0,0,1.2391,-9.3017,-257.01)" />
  <path
     inkscape:connector-curvature="0"
     style="opacity:0.3;fill:url(#v);filter:url(#aa)"
     id="path2018"
     d="m 114.69,326.43 -50.592,7.1605 -1.795,-0.16601 49.355,-7.2597 z"
     transform="matrix(1.2391,0,0,1.2391,-9.3017,-257.01)" />
  <path
     inkscape:connector-curvature="0"
     style="fill:url(#j);stroke-width:1.41647148"
     id="path2020"
     d="m 132.28191,147.4905 c 0,0.33565 -1.0696,0.60774 -2.38902,0.60774 -1.31942,0 -2.38901,-0.27209 -2.38901,-0.60774 0,-0.33565 1.0696,-0.60774 2.38901,-0.60774 1.31941,0 2.38902,0.27209 2.38902,0.60774 z" />
  <path
     inkscape:connector-curvature="0"
     style="fill:url(#w);stroke-width:1.23909998"
     id="path2022"
     d="m 155.67207,10.536472 -27.3618,136.796638 c 0,0 0.43736,0.46458 1.57378,0.51542 0.58576,0.0261 1.74366,-0.23166 1.74366,-0.23166 L 158.91765,11.179565 c 0,0 -0.44303,-0.847532 -1.41059,-1.129303 -0.96757,-0.2817718 -1.83536,0.477561 -1.83536,0.477561 z" />
  <path
     style="fill:#e24423;stroke-width:1.23909998"
     inkscape:connector-curvature="0"
     id="path2024"
     d="m 78.964349,39.1349 5.38389,1.570559 6.193641,1.938448 6.224,1.278504 2.15244,-0.06629 4.39397,1.52496 3.41162,1.314437 2.10684,0.923688 3.9184,-6.102568 c 0,0 1.98194,-3.54618 1.322,-3.576538 C 113.41121,37.90974 81.7864,35.296602 81.7864,35.296602 Z" />
  <path
     style="fill:#ececec;stroke-width:1.23909998"
     inkscape:connector-curvature="0"
     id="path2026"
     d="m 157.36964,11.478188 -23.86383,0.304434 -21.17126,2.766663 -17.121882,6.226601 -3.395506,2.649568 -0.150377,3.266639 -1.14815,4.623702 -0.617047,3.245203 -1.995571,2.714001 4.135496,1.593358 4.731132,-1.185187 15.866675,0.730376 11.62363,1.470316 14.40206,2.065827 6.51184,0.767424 5.24065,-2.097053 6.83995,-16.52092 z" />
  <path
     style="fill:#e24423;stroke-width:1.23909998"
     inkscape:connector-curvature="0"
     id="path2028"
     d="m 157.77854,43.917826 -0.99202,3.591779 0.77177,1.192919 -0.64684,3.277048 -0.24096,1.642303 1.59671,1.230872 32.52389,4.638571 8.53393,1.384942 3.2032,-1.340582 1.39585,-1.589146 1.20262,-4.574138 z" />
  <path
     style="fill:#c6dad8;stroke-width:1.23909998"
     inkscape:connector-curvature="0"
     id="path2030"
     d="m 195.37284,59.976562 -0.0772,1.67675 0.74111,0.492381 -1.35471,6.200457 13.13694,-0.0062 3.3955,-0.760225 1.73982,-1.294735 -0.70407,-4.614904 -10.52974,-3.539737 z" />
  <path
     style="fill:#f9f9f9;stroke-width:1.23909998"
     inkscape:connector-curvature="0"
     id="path2032"
     d="m 157.36964,11.478188 -23.86383,0.310196 -21.17002,2.760096 -17.1256,6.233292 -3.397984,2.650063 -0.01103,0.239717 5.579915,0.715518 14.492519,0.197574 37.55092,1.957902 6.27679,0.998727 0.11883,0.02751 1.43748,-3.471958 0.11127,-12.618994 z" />
  <path
     style="fill:#ed6324;stroke-width:1.23909998"
     inkscape:connector-curvature="0"
     id="path2034"
     d="m 157.07226,11.416233 5.59441,0.588201 20.83051,7.241796 23.88737,12.673515 8.90529,7.684898 -1.15702,3.58422 1.60426,1.065874 -2.71995,8.803062 -3.06095,1.843162 -32.81632,-5.478805 -21.62725,-4.302279 -5.18093,-2.38787 -1.904,-1.741059 0.73042,-5.091958 2.11874,-6.516055 1.41109,-1.919118 1.48704,-3.56898 -0.0283,-2.977433 0.80425,-3.104441 0.51984,-4.109599 z" />
  <path
     style="fill:#ececec;stroke-width:1.23909998"
     inkscape:connector-curvature="0"
     id="path2036"
     d="m 205.44672,47.833382 5.96094,3.239999 3.72126,2.686368 1.28408,2.540155 -3.55373,10.834567 -5.0844,-2.372505 -2.11998,-0.403091 -2.46085,-3.924354 z" />
  <path
     inkscape:connector-curvature="0"
     style="fill:url(#x);stroke-width:1.23909998"
     id="path2038"
     d="m 157.07226,11.403842 -0.59669,2.287626 -0.52794,4.114432 -0.79828,3.108158 0.0271,2.971486 -1.38791,3.343216 1.91874,0.306727 34.5362,6.492884 19.69302,3.9531 6.25274,1.521863 -8.80157,-7.590603 -23.88861,-12.674754 -20.82927,-7.237831 -5.5964,-0.596131 z" />
  <g
     id="g2050"
     transform="matrix(1.2391,0,0,1.2391,-14.537269,-308.08198)">
    <path
       style="opacity:0.5;filter:url(#ab)"
       inkscape:connector-curvature="0"
       id="path2040"
       d="m -1055.2089,-253.6777 c -0.2652,0.007 -0.5197,0.0265 -0.7813,0.0625 -0.9901,0.13624 -1.8806,0.62491 -2.8124,1 -0.3112,0.1251 -0.6454,0.23229 -0.9688,0.3125 -0.4107,0.0987 -0.8436,0.1409 -1.2812,0.15625 -0.4484,0.016 -0.9275,0.0217 -1.375,0.0312 -0.6605,0.0142 -1.327,0.058 -1.9063,0.28125 -0.1961,0.0755 -0.3829,0.16164 -0.5625,0.28125 v 0.0312 c -0.3318,0.22313 -0.583,0.63367 -0.625,1.03125 -0.052,0.48841 0.1596,0.99336 0.4688,1.375 0.5236,0.6464 2.2522,0.42139 2.1562,1.28125 -0.078,0.70425 -2.6474,1.99171 -3.625,3.3125 -0.083,0.11179 -0.1788,0.25105 -0.2812,0.375 l -0.2813,0.21875 c -0.075,0.15961 -0.1553,0.31817 -0.1875,0.46875 v 0.0312 c -0.011,0.0641 -0.01,0.12673 0,0.1875 0.01,0.0608 2e-4,0.12733 0.031,0.1875 l 0.031,0.0312 c 0.033,0.054 0.08,0.11673 0.125,0.15625 0.01,0.005 0.025,-0.005 0.031,0 0.05,0.0406 0.095,0.0985 0.1562,0.125 0.1476,0.0647 0.3495,0.0834 0.5312,0.0937 0.3332,0.0189 0.6908,-0.0448 1,-0.0625 h 0.031 c 0.6079,-0.0313 1.1727,-0.22748 1.75,-0.4375 h 0.031 c 0.5864,-0.21421 1.1765,-0.4329 1.7812,-0.5625 1.266,-0.27131 2.5495,-0.52802 3.8438,-0.5625 0.3751,-0.01 0.7472,-0.0256 1.125,0 0.1888,0.0128 0.3772,0.0308 0.5624,0.0625 0.1852,0.0317 0.3839,0.0989 0.5626,0.15625 0.2574,0.0859 0.5131,0.18119 0.75,0.3125 0.099,0.0541 0.1841,0.12806 0.2812,0.1875 0.1474,0.0913 0.2932,0.18298 0.4375,0.28125 0.01,0.005 0.024,-0.005 0.031,0 l 0.6874,0.46875 0.031,0.0312 c 0.2397,0.15945 0.4649,0.30673 0.7187,0.4375 0.7899,0.40683 1.5749,0.98333 2.4063,1.28125 0.1127,0.0404 0.2284,0.0651 0.3437,0.0937 l 0.094,0.0312 c 0.1547,0.0334 0.3083,0.0559 0.4688,0.0625 0.528,0.0216 1.1927,-0.0738 1.5624,-0.4375 0.059,-0.0579 0.1151,-0.0829 0.1563,-0.15625 0.1272,-0.22645 0.066,-0.48687 -0.031,-0.75 -0.051,-0.14522 -0.093,-0.29399 -0.1562,-0.4375 -0.041,-0.0933 -0.095,-0.19237 -0.125,-0.28125 v -0.0312 c -0.031,-0.0929 -0.076,-0.19052 -0.125,-0.28125 l -0.031,-0.0312 c -0.1736,-0.30846 -0.4115,-0.57803 -0.625,-0.875 -0.08,-0.111 -0.1569,-0.20124 -0.2188,-0.3125 -0.057,-0.0992 -0.091,-0.1812 -0.125,-0.28125 -0.069,-0.20028 -0.079,-0.38576 0,-0.59375 v -0.0312 c 0.017,-0.0458 0.058,-0.0633 0.094,-0.0937 0.036,-0.0304 0.1013,-0.0747 0.1562,-0.0937 v -0.0312 c 0.1213,-0.0377 0.2602,-0.0414 0.375,-0.0625 2.2184,-0.40752 4.5448,0.63638 6.7812,0.34375 0.7224,-0.0945 1.4955,-0.23033 2.0626,-0.6875 0.289,-0.23309 0.7942,-0.64732 0.5624,-0.9375 -1.5751,-1.97208 -4.2987,-2.35216 -6.6562,-3.15625 -0.3172,-0.15284 -0.6228,-0.31706 -0.9375,-0.46875 -0.4057,-0.19555 -0.8379,-0.379 -1.25,-0.5625 l -0.062,-0.0312 c -0.012,-0.006 -0.019,-0.0257 -0.031,-0.0312 -0.1381,-0.0979 -0.2469,-0.20183 -0.375,-0.3125 -0.288,-0.24836 0.086,-0.89806 -0.2188,-1.125 -0.4936,-0.36761 -1.2351,0.31055 -1.8438,0.21875 -0.6087,-0.0918 -1.1317,-0.49799 -1.6874,-0.78125 l -0.063,-0.0312 c -0.1928,-0.095 -0.3866,-0.16867 -0.5937,-0.21875 -0.3791,-0.0917 -0.7654,-0.14116 -1.1563,-0.1875 -0.3909,-0.0463 -0.794,-0.0713 -1.1874,-0.0625 h -0.031 z"
       transform="matrix(0.58203,0,0,0.58203,761.2,523.45)" />
    <path
       style="fill:#d38d5f"
       inkscape:connector-curvature="0"
       id="path2042"
       d="m 140.24491,380.9341 c 0.56898,-0.76874 2.07473,-1.52299 2.12045,-1.93288 0.0558,-0.50047 -0.9472,-0.36038 -1.25201,-0.73661 -0.17996,-0.22212 -0.30239,-0.52905 -0.2721,-0.81332 0.0247,-0.2314 0.1629,-0.47068 0.35601,-0.60055 0.83661,-0.56262 2.01281,-0.20441 2.99136,-0.44712 0.75285,-0.18674 1.42699,-0.66564 2.19541,-0.77137 0.60868,-0.0837 1.24221,-0.0258 1.8394,0.11868 0.48215,0.11659 0.87423,0.51935 1.36472,0.59335 0.3542,0.0534 0.78076,-0.33263 1.06804,-0.11867 0.17735,0.13208 -0.0487,0.50813 0.11867,0.65269 1.46745,1.26764 4.12494,1.01226 5.4271,2.64254 0.1349,0.16889 -0.15596,0.42591 -0.32424,0.56158 -0.33005,0.26609 -0.79092,0.33279 -1.21129,0.38779 -1.30169,0.17032 -2.64233,-0.43257 -3.93352,-0.19538 -0.13365,0.0245 -0.32526,0.0365 -0.37339,0.16361 -0.18343,0.48423 0.4895,0.91823 0.65269,1.40965 0.0907,0.27321 0.31903,0.59413 0.178,0.8451 -0.17467,0.31085 -0.65244,0.37059 -1.0087,0.35601 -0.69927,-0.0286 -1.29396,-0.53777 -1.91612,-0.85826 -0.59105,-0.30446 -1.08765,-0.8056 -1.72073,-1.0087 -0.41604,-0.13347 -0.86861,-0.13031 -1.30538,-0.11867 -0.75332,0.0201 -1.50052,0.16633 -2.23737,0.32424 -0.70397,0.15086 -1.35775,0.55634 -2.07675,0.59335 -0.36696,0.0189 -0.91694,0.13414 -1.08542,-0.1924 -0.14456,-0.28019 0.21761,-0.60125 0.40517,-0.85466 z" />
    <path
       style="fill:#deaa87"
       inkscape:connector-curvature="0"
       id="path2044"
       d="m 147.3486,376.15489 c -1.37507,-0.0718 -7.42107,5.12395 -7.42107,5.12395 l -0.005,0.005 c -0.0872,0.1858 -0.16914,0.36773 -0.0682,0.51921 0.2038,0.30576 0.71867,0.2077 1.08563,0.18881 0.719,-0.037 1.37288,-0.44178 2.07685,-0.59264 0.73685,-0.15791 1.48088,-0.3051 2.23419,-0.32516 0.43677,-0.0116 0.88986,-0.0128 1.3059,0.12062 0.63308,0.2031 1.12916,0.7025 1.72022,1.00696 0.62215,0.32049 1.22025,0.83149 1.91951,0.86011 0.35626,0.0146 0.83229,-0.0458 1.00696,-0.35663 0.14103,-0.25097 -0.0876,-0.57117 -0.17832,-0.84438 -0.16318,-0.49142 -0.839,-0.92655 -0.65557,-1.41079 0.0223,-0.0589 0.0777,-0.0932 0.14161,-0.11538 -1.10545,-1.84918 -2.44385,-3.91376 -3.0471,-4.1537 l -0.11538,-0.0262 z" />
    <path
       style="fill:#deaa87"
       inkscape:connector-curvature="0"
       id="path2046"
       d="m 147.41581,376.20038 c 1.02115,0.74659 2.20314,0.97752 3.27261,1.53141 0.71473,0.37017 1.35526,0.8852 2.09783,1.19576 0.21445,0.0897 0.44141,0.15449 0.67131,0.18881 0.3113,0.0465 0.94402,0.021 0.94402,0.021 0,0 -0.16039,-0.25774 -0.27272,-0.35663 -0.67964,-0.59839 -1.53386,-0.9704 -2.34956,-1.36359 -1.0212,-0.49225 -2.07767,-0.92638 -3.16773,-1.23772 -0.29408,-0.084 -0.60193,-0.2267 -0.90206,-0.16783 -0.11421,0.0224 -0.38765,0.12012 -0.2937,0.18881 z" />
    <path
       style="fill:#deaa87"
       inkscape:connector-curvature="0"
       id="path2048"
       d="m 146.84415,375.59725 c -0.15432,0.004 -0.30936,0.0158 -0.46153,0.0367 -0.76842,0.10572 -1.43938,0.58422 -2.19223,0.77095 -0.97621,0.24214 -2.15317,-0.11636 -2.9894,0.44055 l 0.005,0.0262 c 0,0 0.11144,0.5678 0.33565,0.69228 0.81153,0.45058 1.877,-0.0374 2.76914,-0.29369 0.30659,-0.0881 0.56803,-0.29131 0.86011,-0.41957 0.35074,-0.15402 0.69349,-0.3484 1.06989,-0.41956 0.17178,-0.0325 0.34964,0 0.52446,0 h 1.55239 l 0.27796,-0.53495 c -0.12074,-0.0611 -0.2422,-0.11537 -0.37236,-0.14685 -0.4479,-0.10831 -0.91636,-0.16434 -1.37932,-0.15209 z" />
  </g>
  <path
     style="fill:#ffe6d5;stroke-width:1.23909998"
     inkscape:connector-curvature="0"
     id="path2052"
     d="m 160.07403,163.57897 c 0,0.12093 -0.098,0.21903 -0.21905,0.21903 -0.12106,0 -0.21904,-0.098 -0.21904,-0.21903 0,-0.12106 0.098,-0.21905 0.21904,-0.21905 0.12106,0 0.21905,0.098 0.21905,0.21905 z" />
  <path
     style="fill:#ffe6d5;stroke-width:1.23909998"
     inkscape:connector-curvature="0"
     id="path2054"
     d="m 161.30656,162.56662 c 0,0.12093 -0.098,0.21903 -0.21905,0.21903 -0.12106,0 -0.21903,-0.098 -0.21903,-0.21903 0,-0.12106 0.098,-0.21905 0.21903,-0.21905 0.12106,0 0.21905,0.098 0.21905,0.21905 z" />
  <path
     style="fill:#ffe6d5;stroke-width:1.23909998"
     inkscape:connector-curvature="0"
     id="path2056"
     d="m 162.53822,161.55304 c 0,0.12093 -0.098,0.21903 -0.21904,0.21903 -0.12106,0 -0.21904,-0.098 -0.21904,-0.21903 0,-0.12106 0.098,-0.21905 0.21904,-0.21905 0.12106,0 0.21904,0.098 0.21904,0.21905 z" />
  <path
     style="fill:#ffe6d5;stroke-width:1.23909998"
     inkscape:connector-curvature="0"
     id="path2058"
     d="m 163.66085,160.67699 c 0,0.12093 -0.098,0.21903 -0.21905,0.21903 -0.12106,0 -0.21903,-0.098 -0.21903,-0.21903 0,-0.12106 0.098,-0.21905 0.21903,-0.21905 0.12106,0 0.21905,0.098 0.21905,0.21905 z" />
  <path
     style="fill:#ffe6d5;stroke-width:1.23909998"
     inkscape:connector-curvature="0"
     id="path2060"
     d="m 164.94827,159.77369 c 0,0.12093 -0.098,0.21903 -0.21904,0.21903 -0.12106,0 -0.21904,-0.098 -0.21904,-0.21903 0,-0.12106 0.098,-0.21905 0.21904,-0.21905 0.12106,0 0.21904,0.098 0.21904,0.21905 z" />
  <path
     style="fill:#ffe6d5;stroke-width:1.23909998"
     inkscape:connector-curvature="0"
     id="path2062"
     d="m 166.31624,158.89765 c 0,0.12093 -0.098,0.21903 -0.21905,0.21903 -0.12106,0 -0.21903,-0.098 -0.21903,-0.21903 0,-0.12106 0.098,-0.21905 0.21903,-0.21905 0.12106,0 0.21905,0.098 0.21905,0.21905 z" />
  <path
     style="fill:#ffe6d5;stroke-width:1.23909998"
     inkscape:connector-curvature="0"
     id="path2064"
     d="m 168.69903,158.89765 c 0,0.12093 -0.098,0.21903 -0.21905,0.21903 -0.12106,0 -0.21903,-0.098 -0.21903,-0.21903 0,-0.12106 0.098,-0.21905 0.21903,-0.21905 0.12106,0 0.21905,0.098 0.21905,0.21905 z" />
  <path
     style="fill:#ffe6d5;stroke-width:1.23909998"
     inkscape:connector-curvature="0"
     id="path2066"
     d="m 169.43877,160.23835 c 0,0.12093 -0.098,0.21903 -0.21905,0.21903 -0.12106,0 -0.21903,-0.098 -0.21903,-0.21903 0,-0.12106 0.098,-0.21905 0.21903,-0.21905 0.12106,0 0.21905,0.098 0.21905,0.21905 z" />
  <path
     style="fill:#ffe6d5;stroke-width:1.23909998"
     inkscape:connector-curvature="0"
     id="path2068"
     d="m 170.12276,161.5803 c 0,0.12093 -0.098,0.21903 -0.21905,0.21903 -0.12106,0 -0.21904,-0.098 -0.21904,-0.21903 0,-0.12106 0.098,-0.21905 0.21904,-0.21905 0.12106,0 0.21905,0.098 0.21905,0.21905 z" />
  <path
     style="fill:#ffe6d5;stroke-width:1.23909998"
     inkscape:connector-curvature="0"
     id="path2070"
     d="m 170.77948,162.6484 c 0,0.12093 -0.098,0.21903 -0.21905,0.21903 -0.12106,0 -0.21904,-0.098 -0.21904,-0.21903 0,-0.12106 0.098,-0.21905 0.21904,-0.21905 0.12106,0 0.21905,0.098 0.21905,0.21905 z" />
  <path
     style="fill:#ffe6d5;stroke-width:1.23909998"
     inkscape:connector-curvature="0"
     id="path2072"
     d="m 171.2999,163.85281 c 0,0.12093 -0.098,0.21903 -0.21905,0.21903 -0.12106,0 -0.21903,-0.098 -0.21903,-0.21903 0,-0.12106 0.098,-0.21905 0.21903,-0.21905 0.12106,0 0.21905,0.098 0.21905,0.21905 z" />
  <path
     style="fill:#ffe6d5;stroke-width:1.23909998"
     inkscape:connector-curvature="0"
     id="path2074"
     d="m 171.95662,165.14023 c 0,0.12093 -0.098,0.21903 -0.21904,0.21903 -0.12106,0 -0.21904,-0.098 -0.21904,-0.21903 0,-0.12106 0.098,-0.21905 0.21904,-0.21905 0.12106,0 0.21904,0.098 0.21904,0.21905 z" />
  <path
     style="fill:#ed6324;stroke-width:1.23909998"
     inkscape:connector-curvature="0"
     id="path2108"
     d="m 93.394908,22.357486 -9.728422,4.427304 -3.535276,4.962844 -1.481468,7.041433 5.647694,-0.566752 3.784087,-1.080049 2.802473,-1.923579 2.088255,-5.85611 0.37007,-4.44713 z" />
  <g
     transform="matrix(5.9809016,0,0,5.9809016,-1352.3523,-713.31168)"
     id="layer1"
     inkscape:label="Layer 1"
     style="fill:#4d4d4d">
    <path
       style="fill:#4d4d4d;fill-opacity:1"
       inkscape:connector-curvature="0"
       d="m 254.14516,138.67119 c -0.11791,-0.13553 -0.6264,-0.41552 -0.73018,-0.74181 -0.28367,-1.02722 -1.48712,-1.40404 -1.48712,-1.40404 l 0.12916,-1.87475 c -0.53384,0.16284 -1.27431,0.77705 -2.04862,1.55488 -0.12064,-0.0157 -0.24437,-0.0269 -0.36986,-0.0269 -0.88915,0 -1.68132,0.41419 -2.19696,1.05781 -1.12151,-0.92013 -2.34296,-1.56127 -4.32635,-1.49076 -4.19873,0.15043 -6.50046,2.98698 -7.25562,6.91057 -0.96566,0.7691 -1.00981,1.62574 -0.93583,2.0982 0.22462,1.44064 1.93052,2.48722 3.06986,2.76974 3.41994,0.84888 6.93498,-0.56639 8.95417,-3.60351 0.2709,-0.40703 0.16015,-0.95675 -0.24765,-1.22784 -0.40663,-0.2707 -0.95615,-0.15995 -1.22744,0.24689 -1.5998,2.40627 -4.36797,3.53129 -7.0527,2.865 -0.74606,-0.18531 -1.59961,-0.81751 -1.73166,-1.26578 l 0.22443,0.0568 h 6.1035 c 0.77879,-0.47401 1.47045,-1.13022 2.01495,-1.9493 0.43218,-0.65119 1.31419,-0.82778 1.96459,-0.39559 0.65023,0.43258 0.82818,1.31381 0.39561,1.9646 -0.0867,0.12954 -0.17659,0.2556 -0.26799,0.38029 h 3.68349 c -0.0144,-0.0297 0.0158,-0.0125 0.0158,-0.0125 -0.0306,-0.0459 -0.3739,-0.57876 -0.41205,-1.18446 -0.0726,-1.1467 0.6965,-2.09569 0.6965,-2.09569 l 0.009,-0.0114 c 2.4026,0.41978 2.9227,-1.08861 3.05574,-1.82247 0.0617,-0.33924 0.1849,-0.65564 -0.0257,-0.79778 z m -2.02114,-0.26354 c -0.18299,0 -0.33149,-0.14871 -0.33149,-0.33169 0,-0.18316 0.1485,-0.33168 0.33149,-0.33168 0.18338,0 0.3317,0.14871 0.3317,0.33168 0,0.18298 -0.14832,0.33169 -0.3317,0.33169 z"
       id="path4186" />
  </g>
</svg>
