<?xml version="1.0" encoding="utf-8"?>
<!-- Generator: Adobe Illustrator 21.0.2, SVG Export Plug-In . SVG Version: 6.00 Build 0)  -->
<svg version="1.1" id="Layer_1" xmlns="http://www.w3.org/2000/svg" xmlns:xlink="http://www.w3.org/1999/xlink" x="0px" y="0px"
	 viewBox="0 0 1084 191" style="enable-background:new 0 0 1084 191;" xml:space="preserve">
<style type="text/css">
	.st0{fill:#FFFFFF;}
	.st1{fill:#FBB03B;}
	.st2{fill:#4D4D4D;}
	.st3{fill:#0F509C;}
	.st4{opacity:0.1;}
	.st5{fill:#023C96;}
</style>
<g>
	<path class="st3" d="M461.6,175c-14.5,11.1-32.8,15.6-53.9,15.6s-45.5-5.8-70.3-24.3l26.4-44.9c16.9,14.3,40.7,19.8,48.6,19.8
		c7.9,0,13.5-2.4,13.5-7.7c0-5.3-6.6-7.4-13.2-9.5c-6.6-1.8-21.1-6.6-26.4-8.5c-5.3-2.1-15.9-5.6-25.1-13.5
		c-9.3-7.9-16.7-19-16.7-38.9c0-19.8,10.3-35.2,21.1-44.1C376.8,9.8,395,3.2,419.3,3.2c24.3,0,49.2,8.7,65,21.9l-22.7,42.3
		C447.9,55.2,427.8,50,418.3,50c-9.5,0-14.8,1.8-14.8,7.4c0,5.3,8.5,7.1,12.7,8.5c4.2,1.3,15.3,4.5,21.7,6.6
		c6.3,2.1,21.1,7.4,30.4,15.3c9.3,7.9,17.2,20.4,17.2,39.6C485.4,146.4,476.2,163.6,461.6,175z M574.6,189.4
		c-56.8,0-99.1-34.6-99.1-94.1c0-59.5,42.3-94.4,99.1-94.4s99.1,34.9,99.1,94.4C673.7,154.8,631.4,189.4,574.6,189.4z M574.6,51.5
		c-23.8,0-39.1,17.4-39.1,42.6s15.3,42.6,39.1,42.6s38.9-17.4,38.9-42.6S598.4,51.5,574.6,51.5z M794.8,187.4H673.2V5h59.5v133.5
		h62.1V187.4z M943.9,5l-68.7,182.4H817L748.3,5h63.4l34.4,105.7L880.4,5H943.9z M1081,187.4H948.8V5h129.5v47h-70v19.8h66.1v46.8
		h-66.1v21.1h72.7V187.4z M99.4,80.3l60.2-76.7V2.1H-0.1v106.6c0,44.1,35.7,79.8,79.8,79.8h0c44.1,0,79.8-35.7,79.8-79.8V80.3H99.4z
		 M272,2.2l-83.5-0.5l0,1.7l60.4,76.8h-60.8l-0.2,39.2l0,0l0,7.5c-0.2,33.9,27.2,61.5,61.1,61.5h0v-60.3l22.8-0.5
		c34.7,0.2,62.9-27.8,63.1-62.4v0C334.7,30.6,306.7,2.4,272,2.2z"/>
</g>
</svg>
